<svg width="20" height="20" viewBox="0 0 20 20" fill="none" xmlns="http://www.w3.org/2000/svg">
<path fill-rule="evenodd" clip-rule="evenodd" d="M-0.000106812 10.0001C-0.000106812 4.48009 4.46989 9.15527e-05 9.99989 9.15527e-05C15.5199 9.15527e-05 19.9999 4.48009 19.9999 10.0001C19.9999 15.5301 15.5199 20.0001 9.99989 20.0001C4.46989 20.0001 -0.000106812 15.5301 -0.000106812 10.0001ZM12.2299 11.8301L13.8499 6.71009C13.9599 6.36009 13.6399 6.03009 13.2899 6.14009L8.16989 7.74009C7.95989 7.81009 7.78989 7.97009 7.72989 8.18009L6.12989 13.3101C6.01989 13.6501 6.34989 13.9801 6.68989 13.8701L11.7899 12.2701C11.9999 12.2101 12.1699 12.0401 12.2299 11.8301Z" fill="#A19FA8"/>
</svg>
